<svg width="71" height="72" viewBox="0 0 71 72" fill="none" xmlns="http://www.w3.org/2000/svg">
<g id="026---Idea" clip-path="url(#clip0_1_118)">
<path id="Shape" d="M65.6715 37.7437C65.4547 36.6138 64.4665 35.7968 63.3159 35.7961H60.9987L60.8283 34.7749C60.6583 33.7492 59.8502 32.9479 58.8231 32.7865C58.5951 32.7505 58.3647 32.7265 58.1379 32.6953C58.5309 30.8608 58.2044 28.9453 57.2259 27.3445C57.7429 26.0035 57.6464 24.5033 56.9619 23.2395C56.2774 21.9758 55.0736 21.0754 53.6679 20.7757C52.7693 15.9661 48.5851 12.47 43.6923 12.4405C43.5723 12.4405 43.4655 12.4561 43.3515 12.4597C42.5697 11.2319 41.2808 10.4171 39.8364 10.2374C38.3919 10.0578 36.9427 10.5321 35.8839 11.5309C34.5502 10.6639 32.9939 10.2017 31.4031 10.2001C28.84 10.2106 26.4243 11.4003 24.8535 13.4257C23.1094 12.9171 21.2286 13.2294 19.7424 14.2744C18.2562 15.3193 17.3259 16.9836 17.2143 18.7969C15.3823 19.567 14.1903 21.3601 14.1891 23.3473C14.1929 23.6918 14.2331 24.0349 14.3091 24.3709C12.689 26.8133 12.2657 29.8593 13.1583 32.6509C12.8367 32.6953 12.5079 32.7349 12.1983 32.7805C11.1659 32.9363 10.3506 33.7381 10.1775 34.7677L10.0071 35.7925H7.68394C6.53536 35.7933 5.54835 36.6078 5.32954 37.7353L0.0747417 64.7137C-0.130476 65.7703 0.14781 66.8632 0.833318 67.693C1.51883 68.5228 2.53964 69.0023 3.61594 69.0001H28.6407C29.6343 70.6393 32.6535 71.4001 35.4999 71.4001C38.3163 71.4001 41.3067 70.6573 42.3291 69.0001H67.3839C68.46 69.0022 69.4806 68.5229 70.166 67.6934C70.8515 66.8639 71.13 65.7713 70.9251 64.7149L65.6715 37.7437ZM17.8179 25.5193C16.8436 24.9335 16.3786 23.7705 16.6804 22.6745C16.9823 21.5784 17.9771 20.8174 19.1139 20.8129C19.9096 20.8106 20.6584 21.1888 21.1287 21.8305C21.3843 22.1748 21.804 22.3566 22.2299 22.3074C22.6558 22.2583 23.0231 21.9856 23.1935 21.5922C23.3639 21.1988 23.3115 20.7444 23.0559 20.4001C22.2411 19.3111 21.0063 18.6144 19.6527 18.4801C20.0105 16.7996 21.4925 15.5965 23.2107 15.5917C23.3572 15.5992 23.503 15.6152 23.6475 15.6397C23.551 15.8857 23.4669 16.1365 23.3955 16.3909C23.2462 17.0261 23.6318 17.6643 24.2636 17.8275C24.8954 17.9906 25.5418 17.619 25.7187 16.9909C25.8552 16.4635 26.0648 15.9578 26.3415 15.4885C27.406 13.7053 29.3264 12.6094 31.4031 12.6001C32.5334 12.6051 33.6378 12.9387 34.5819 13.5601C34.4021 14.0655 34.3068 14.597 34.2999 15.1333C34.2999 15.7961 34.8372 16.3333 35.4999 16.3333C36.1627 16.3333 36.6999 15.7961 36.6999 15.1333C36.6999 13.7393 37.8301 12.6091 39.2241 12.6091C40.6182 12.6091 41.7483 13.7393 41.7483 15.1333C41.7483 15.7961 42.2856 16.3333 42.9483 16.3333C43.6111 16.3333 44.1483 15.7961 44.1483 15.1333C44.1483 15.0409 44.1255 14.9533 44.1207 14.8609C47.5568 15.0729 50.4461 17.5154 51.2271 20.8681C50.6674 21.0311 50.1414 21.2933 49.6743 21.6421C49.3314 21.8994 49.1517 22.32 49.203 22.7457C49.2542 23.1713 49.5287 23.5373 49.923 23.7057C50.3172 23.8741 50.7714 23.8194 51.1143 23.5621C52.0733 22.8522 53.3979 22.9088 54.2928 23.698C55.1876 24.4872 55.4093 25.7944 54.8247 26.8345C54.5635 27.2938 54.1666 27.661 53.6883 27.8857C53.1868 28.1285 52.9185 28.6846 53.0404 29.2283C53.1623 29.772 53.6424 30.1603 54.1995 30.1657C54.3755 30.166 54.5493 30.1271 54.7083 30.0517C55.0264 29.8976 55.3269 29.7097 55.6047 29.4913C56.2251 31.2548 55.836 33.2161 54.5895 34.6093L54.5607 34.6393C52.9974 36.3329 50.5036 36.7906 48.4407 35.7625C48.2387 35.6558 48.0446 35.5347 47.8599 35.4001C48.7438 34.161 48.8659 32.5333 48.1767 31.1761C47.9838 30.7931 47.6012 30.542 47.173 30.5176C46.7448 30.4931 46.3361 30.699 46.1008 31.0576C45.8655 31.4162 45.8394 31.8731 46.0323 32.2561C46.4269 33.0493 46.1808 34.0118 45.4539 34.5181C45.0271 34.8023 44.4998 34.8922 44.0029 34.7655C43.506 34.6387 43.0861 34.3072 42.8475 33.8533C42.6557 33.4698 42.2738 33.2178 41.8458 33.1922C41.4178 33.1666 41.0086 33.3713 40.7724 33.7292C40.5362 34.0871 40.5089 34.5438 40.7007 34.9273C41.4045 36.348 42.8545 37.2452 44.4399 37.2409C44.9561 37.2374 45.467 37.1369 45.9459 36.9445C46.3745 37.3198 46.8467 37.6421 47.3523 37.9045C49.0626 38.791 51.0514 38.9749 52.8951 38.4169C51.7093 40.0361 49.9345 41.1244 47.9535 41.4469C47.3373 41.5473 46.9009 42.1034 46.9501 42.7259C46.9993 43.3483 47.5176 43.829 48.1419 43.8313C48.2058 43.8313 48.2696 43.8265 48.3327 43.8169C49.0635 43.6904 49.7776 43.4819 50.4615 43.1953C50.8312 43.8489 51.1313 44.5395 51.3567 45.2557C51.398 45.3808 51.4191 45.5116 51.4191 45.6433C51.4188 46.162 51.1091 46.6304 50.6319 46.8337C50.08 47.0472 49.4533 46.8788 49.0827 46.4173C48.1534 45.326 46.9365 44.5173 45.5703 44.0833C42.9771 43.2145 41.9763 42.4381 41.5515 41.5933C42.1742 41.5156 42.7894 41.3872 43.3911 41.2093C43.801 41.0833 44.1125 40.7482 44.2082 40.3302C44.304 39.9122 44.1695 39.4749 43.8554 39.183C43.5414 38.8911 43.0954 38.7889 42.6855 38.9149C42.0122 39.1215 41.3171 39.2492 40.6143 39.2953C39.2603 39.4012 37.9001 39.1959 36.6375 38.6953C36.1635 38.5105 35.6244 38.6446 35.2923 39.0301C33.5452 41.0371 30.5549 41.3782 28.4006 39.8163C26.2464 38.2544 25.6409 35.3063 27.0051 33.0217C27.2261 32.6528 27.2336 32.194 27.0246 31.8182C26.8156 31.4423 26.422 31.2065 25.992 31.1996C25.562 31.1926 25.1609 31.4156 24.9399 31.7845C24.6536 32.2718 24.4234 32.7899 24.2535 33.3289C23.3086 33.2792 22.5634 32.5063 22.5483 31.5601V31.5301C22.5477 31.2135 22.4206 30.9102 22.1952 30.6878C21.9699 30.4654 21.665 30.3422 21.3483 30.3457C20.6827 30.3523 20.147 30.8945 20.1483 31.5601C20.1537 33.6883 21.7586 35.472 23.8743 35.7013C23.8786 36.1036 23.9152 36.5049 23.9835 36.9013C21.3042 37.4811 18.5252 36.518 16.7792 34.4046C15.0332 32.2911 14.6118 29.3803 15.6867 26.8585C15.9552 27.1301 16.2549 27.369 16.5795 27.5701C17.1464 27.9022 17.8749 27.7167 18.214 27.1539C18.553 26.5912 18.3765 25.8605 17.8179 25.5145V25.5193ZM12.5379 35.1589C13.0911 35.0773 13.6623 35.0053 14.2299 34.9309C16.4487 38.4765 20.6921 40.1981 24.7539 39.2005C25.8453 41.2719 27.8396 42.7165 30.148 43.1077C32.4565 43.499 34.8154 42.7922 36.5283 41.1961C37.3438 41.4394 38.1838 41.5915 39.0327 41.6497C39.6123 43.8481 41.2875 45.1801 44.8071 46.3597C45.756 46.6572 46.6024 47.2147 47.2503 47.9689C47.9707 48.8255 49.0303 49.3233 50.1495 49.3309C50.639 49.3308 51.1235 49.232 51.5739 49.0405C52.9342 48.4592 53.8166 47.1226 53.8167 45.6433C53.8178 45.2575 53.7562 44.8741 53.6343 44.5081C53.3645 43.6603 53.0091 42.842 52.5735 42.0661C54.6141 40.5992 56.0356 38.4253 56.5611 35.9677C56.8167 35.6641 57.0478 35.3407 57.2523 35.0005C57.6543 35.0521 58.0563 35.0977 58.4607 35.1649L62.7927 61.2217C54.325 58.3942 45.1677 58.3942 36.6999 61.2217V46.2001C36.6999 45.5374 36.1627 45.0001 35.4999 45.0001C34.8372 45.0001 34.2999 45.5374 34.2999 46.2001V61.2265C25.8331 58.3964 16.6761 58.393 8.20714 61.2169L12.5379 35.1589ZM2.68114 66.1585C2.45439 65.8846 2.36196 65.5237 2.42914 65.1745L7.68394 38.1961H9.60394L5.83834 60.8269C5.70589 61.6507 6.0092 62.4843 6.64002 63.0303C7.27084 63.5763 8.13932 63.7569 8.93554 63.5077C15.3327 61.4352 22.1481 61.0027 28.7559 62.2501L28.3983 66.6001H3.61594C3.25392 66.6004 2.91086 66.4383 2.68114 66.1585ZM35.4999 69.0001C32.6091 69.0001 30.9507 68.1457 30.7071 67.7653L31.1199 62.7853C32.4394 63.1139 33.7307 63.5468 34.9815 64.0801C35.1433 64.1581 35.3204 64.1991 35.4999 64.2001C35.68 64.1999 35.8576 64.1588 36.0195 64.0801C37.2696 63.5437 38.5605 63.1079 39.8799 62.7769L40.2927 67.7641C40.0491 68.1457 38.3907 69.0001 35.4999 69.0001ZM68.3187 66.1585C68.089 66.4383 67.746 66.6004 67.3839 66.6001H42.6051L42.2451 62.2417C48.8566 60.9969 55.6749 61.433 62.0739 63.5101C62.87 63.756 63.7366 63.5728 64.365 63.0258C64.9934 62.4787 65.2942 61.6457 65.1603 60.8233L61.3983 38.1973H63.3183L68.5743 65.1733C68.6409 65.5234 68.5471 65.8849 68.3187 66.1585Z" fill="#FFAB71"/>
<path id="Shape_2" d="M31.5231 27.8221C31.0318 28.2666 30.9937 29.025 31.4379 29.5165C32.4558 30.6404 33.8012 31.4161 35.2839 31.7341C34.6124 32.6804 33.5234 33.2419 32.3631 33.2401C31.7003 33.2401 31.1631 33.7773 31.1631 34.4401C31.1631 35.1028 31.7003 35.6401 32.3631 35.6401C34.8473 35.65 37.0762 34.1157 37.9539 31.7917C40.9377 31.2972 43.3 29.0004 43.8783 26.0317C43.9676 25.6071 43.8208 25.1673 43.4942 24.8815C43.1676 24.5958 42.7122 24.5086 42.3032 24.6535C41.8942 24.7984 41.5953 25.1529 41.5215 25.5805C41.2862 26.8182 40.5721 27.913 39.5343 28.6273C37.5378 29.9719 34.8602 29.6667 33.2175 27.9073C32.773 27.4161 32.0146 27.3779 31.5231 27.8221Z" fill="#FFAB71"/>
<path id="Shape_3" d="M27.3399 26.5202C28.0026 26.5202 28.5399 25.9829 28.5399 25.3202C28.5399 24.4927 28.8686 23.6991 29.4537 23.114C30.0388 22.5289 30.8324 22.2002 31.6599 22.2002C32.3226 22.2002 32.8599 21.6629 32.8599 21.0002C32.8599 20.3374 32.3226 19.8002 31.6599 19.8002C28.6127 19.8035 26.1432 22.2729 26.1399 25.3202C26.1399 25.6384 26.2663 25.9437 26.4914 26.1687C26.7164 26.3937 27.0216 26.5202 27.3399 26.5202Z" fill="#FFAB71"/>
<path id="Shape_4" d="M36.6999 3.0001V1.8001C36.6999 1.13736 36.1627 0.600098 35.4999 0.600098C34.8372 0.600098 34.2999 1.13736 34.2999 1.8001V3.0001C34.2999 3.66284 34.8372 4.2001 35.4999 4.2001C36.1627 4.2001 36.6999 3.66284 36.6999 3.0001Z" fill="#FFAB71"/>
<path id="Shape_5" d="M55.1921 9.21122L53.992 10.4112C53.6801 10.7125 53.555 11.1587 53.6648 11.5782C53.7746 11.9978 54.1023 12.3254 54.5218 12.4353C54.9414 12.5451 55.3876 12.42 55.6889 12.108L56.8889 10.908C57.2008 10.6067 57.3259 10.1606 57.2161 9.74102C57.1063 9.32146 56.7786 8.99381 56.3591 8.88399C55.9395 8.77417 55.4933 8.89928 55.1921 9.21122Z" fill="#FFAB71"/>
<path id="Shape_6" d="M16.1595 12.4596C16.6448 12.4595 17.0822 12.1672 17.2679 11.7188C17.4536 11.2705 17.351 10.7544 17.0079 10.4112L15.8079 9.21122C15.5066 8.89928 15.0605 8.77417 14.6409 8.88399C14.2214 8.99381 13.8937 9.32146 13.7839 9.74102C13.6741 10.1606 13.7992 10.6067 14.1111 10.908L15.3111 12.108C15.5361 12.3331 15.8413 12.4596 16.1595 12.4596Z" fill="#FFAB71"/>
<path id="Shape_7" d="M25.3973 7.41008C25.5549 7.40974 25.711 7.37877 25.8569 7.31888C26.151 7.19704 26.3846 6.96333 26.5064 6.66917C26.6282 6.37502 26.628 6.04454 26.5061 5.75048L25.1273 2.42408C24.9693 2.01893 24.6046 1.73092 24.1738 1.67128C23.7431 1.61163 23.3138 1.78967 23.0517 2.13666C22.7896 2.48364 22.7357 2.94526 22.9109 3.34328L24.2885 6.66968C24.4743 7.11799 24.9119 7.4102 25.3973 7.41008Z" fill="#FFAB71"/>
<path id="Shape_8" d="M47.44 1.7748C46.8279 1.52161 46.1265 1.81217 45.8728 2.424L44.494 5.7504C44.3716 6.04461 44.3713 6.37539 44.4931 6.66983C44.6149 6.96426 44.8487 7.19818 45.1432 7.32C45.289 7.37989 45.4451 7.41087 45.6028 7.4112C46.0881 7.41133 46.5257 7.11911 46.7116 6.6708L48.0892 3.3444C48.2115 3.0502 48.2118 2.71942 48.0901 2.42498C47.9683 2.13054 47.7344 1.89663 47.44 1.7748Z" fill="#FFAB71"/>
<path id="Shape_9" d="M59.89 21.6985C60.0478 21.6982 60.204 21.6668 60.3496 21.6061L63.6748 20.2285C64.0709 20.0645 64.3495 19.7017 64.4056 19.2766C64.4616 18.8516 64.2866 18.4289 63.9465 18.1678C63.6065 17.9068 63.1529 17.847 62.7568 18.0109L59.4304 19.3885C58.8996 19.6066 58.5974 20.1699 58.7094 20.7327C58.8214 21.2955 59.3162 21.7003 59.89 21.6985Z" fill="#FFAB71"/>
<path id="Shape_10" d="M10.6504 21.6061C11.2627 21.8599 11.9649 21.5692 12.2188 20.9569C12.4726 20.3445 12.1819 19.6423 11.5696 19.3885L8.24317 18.0109C7.63079 17.7574 6.92886 18.0483 6.67536 18.6607C6.42187 19.273 6.71279 19.975 7.32517 20.2285L10.6504 21.6061Z" fill="#FFAB71"/>
</g>
<defs>
<clipPath id="clip0_1_118">
<rect width="70.9823" height="70.8" fill="white" transform="translate(0.00866699 0.600098)"/>
</clipPath>
</defs>
</svg>
