<svg width="73" height="72" viewBox="0 0 73 72" fill="none" xmlns="http://www.w3.org/2000/svg">
<g id="Frame" clip-path="url(#clip0_1_136)">
<path id="Vector" d="M72.4713 57.9212V51.5857H65.7135V47.362H63.4609V43.8423H65.7135V37.5068H48.8692V39.6187H63.6017V41.7305H19.9069V43.8423H61.3489V47.362H15.3815C14.4111 47.362 13.6217 46.5726 13.6217 45.6022C13.6217 44.6317 14.4111 43.8423 15.3815 43.8423H17.7951V41.7305H15.3815C13.2468 41.7305 11.5099 43.4673 11.5099 45.6022C11.5099 47.7371 13.2468 49.4739 15.3815 49.4739H63.6015V51.5857H27.2077V53.6975H70.3594V55.8093H10.7355C7.43614 55.8093 4.75201 58.4935 4.75201 61.7928C4.75201 65.0922 7.43614 67.7763 10.7355 67.7763H60.4739V65.6645H10.7357C8.60074 65.6645 6.86398 63.9278 6.86398 61.7928C6.86398 59.6579 8.60074 57.9212 10.7357 57.9212H68.1069V61.4409H21.2948V63.5527H68.1069V65.6645H62.5859V67.7763H70.3595V69.8882H10.7357C6.27182 69.8882 2.64033 66.2567 2.64033 61.7928C2.64033 57.329 6.27182 53.6975 10.7357 53.6975H25.0961V51.5857H15.3817C12.0823 51.5857 9.39817 48.9015 9.39817 45.6022C9.39817 42.3028 12.0823 39.6187 15.3817 39.6187H46.7573V37.5068H15.3817C10.9178 37.5068 7.28634 41.1383 7.28634 45.6022C7.28634 47.9874 8.32381 50.1344 9.97061 51.6174C4.69865 52.0103 0.528503 56.4222 0.528503 61.7928C0.528503 67.4211 5.10736 72 10.7357 72H72.4713V65.6645H70.2187V57.9212H72.4713Z" fill="#E74040"/>
<path id="Vector_2" d="M17.0711 61.4409H19.1829V63.5527H17.0711V61.4409Z" fill="#E74040"/>
<path id="Vector_3" d="M19.9572 31.3844L20.4274 31.6979C20.6107 31.8201 25.0487 34.6911 36.4998 34.6911C47.951 34.6911 52.3889 31.8201 52.5722 31.6979L53.0425 31.3844V13.6065L59.3779 11.4947V21.4637C57.7549 21.9247 56.5622 23.4192 56.5622 25.1879V30.4674H64.3055V25.1879C64.3055 23.4192 63.1128 21.9247 61.4898 21.4637V10.7907L65.1808 9.56037L54.0915 5.86383L53.4236 7.86725L58.5027 9.56023L36.4998 16.8946L14.497 9.56037L36.4998 2.22615L51.4202 7.19963L52.0881 5.19622L36.4998 0L7.81885 9.56037L19.9572 13.6065V31.3844ZM62.1937 25.1879V28.3556H58.674V25.1879C58.674 24.2174 59.4634 23.428 60.4338 23.428C61.4043 23.428 62.1937 24.2174 62.1937 25.1879ZM22.069 14.3104L36.4998 19.1207L50.9306 14.3104V22.5833H48.326V24.6951H50.9306V26.8069H46.355V28.9188H50.9306V30.1918C49.5698 30.8545 45.1914 32.5793 36.4998 32.5793C27.8016 32.5793 23.4231 30.8518 22.069 30.1923V14.3104Z" fill="#E74040"/>
<path id="Vector_4" d="M12.8475 61.4409H14.9594V63.5527H12.8475V61.4409Z" fill="#E74040"/>
<path id="Vector_5" d="M42.1314 26.8069H44.2432V28.9187H42.1314V26.8069Z" fill="#E74040"/>
</g>
<defs>
<clipPath id="clip0_1_136">
<rect width="71.9428" height="72" fill="white" transform="translate(0.528503)"/>
</clipPath>
</defs>
</svg>
